<svg width="58" height="58" viewBox="0 0 58 58" fill="none" xmlns="http://www.w3.org/2000/svg">
<ellipse cx="29" cy="28.642" rx="29" ry="28.642" fill="#1A1A19"/>
<path d="M52.5 28.5C52.5 41.1927 41.9887 51.5 29 51.5C16.0113 51.5 5.5 41.1927 5.5 28.5C5.5 15.8073 16.0113 5.5 29 5.5C41.9887 5.5 52.5 15.8073 52.5 28.5Z" stroke="#E8E0D4"/>
<path fill-rule="evenodd" clip-rule="evenodd" d="M16.3579 27.9086C16.3579 27.6748 16.4519 27.4507 16.6193 27.2854C16.7866 27.1201 17.0136 27.0273 17.2502 27.0273H38.2962L32.68 21.4822C32.5124 21.3167 32.4183 21.0923 32.4183 20.8582C32.4183 20.6242 32.5124 20.3998 32.68 20.2343C32.8476 20.0688 33.0748 19.9758 33.3118 19.9758C33.5487 19.9758 33.776 20.0688 33.9435 20.2343L41.082 27.2846C41.1651 27.3665 41.231 27.4637 41.276 27.5708C41.321 27.6779 41.3441 27.7926 41.3441 27.9086C41.3441 28.0245 41.321 28.1393 41.276 28.2463C41.231 28.3534 41.1651 28.4507 41.082 28.5325L33.9435 35.5829C33.776 35.7483 33.5487 35.8413 33.3118 35.8413C33.0748 35.8413 32.8476 35.7483 32.68 35.5829C32.5124 35.4174 32.4183 35.1929 32.4183 34.9589C32.4183 34.7249 32.5124 34.5004 32.68 34.3349L38.2962 28.7899H17.2502C17.0136 28.7899 16.7866 28.697 16.6193 28.5317C16.4519 28.3665 16.3579 28.1423 16.3579 27.9086Z" fill="#E8E0D4"/>
</svg>
