<svg width="24" height="16" viewBox="0 0 24 16" fill="none" xmlns="http://www.w3.org/2000/svg">
<path fill-rule="evenodd" clip-rule="evenodd" d="M0.10791 8.01606C0.10791 7.79572 0.195437 7.58442 0.351237 7.42862C0.507036 7.27282 0.718346 7.18529 0.938679 7.18529H20.5332L15.3043 1.95809C15.1483 1.80209 15.0607 1.59052 15.0607 1.3699C15.0607 1.14929 15.1483 0.937716 15.3043 0.78172C15.4603 0.625724 15.6719 0.538086 15.8925 0.538086C16.1131 0.538086 16.3247 0.625724 16.4807 0.78172L23.1269 7.42787C23.2042 7.50504 23.2656 7.59672 23.3075 7.69765C23.3494 7.79858 23.3709 7.90678 23.3709 8.01606C23.3709 8.12533 23.3494 8.23353 23.3075 8.33446C23.2656 8.43539 23.2042 8.52707 23.1269 8.60424L16.4807 15.2504C16.3247 15.4064 16.1131 15.494 15.8925 15.494C15.6719 15.494 15.4603 15.4064 15.3043 15.2504C15.1483 15.0944 15.0607 14.8828 15.0607 14.6622C15.0607 14.4416 15.1483 14.23 15.3043 14.074L20.5332 8.84683H0.938679C0.718346 8.84683 0.507036 8.7593 0.351237 8.6035C0.195437 8.4477 0.10791 8.23639 0.10791 8.01606Z" fill="#1A1A19"/>
</svg>
