<svg width="29" height="29" viewBox="0 0 29 29" fill="none" xmlns="http://www.w3.org/2000/svg">
<path fill-rule="evenodd" clip-rule="evenodd" d="M1.35791 14.2575C1.35791 14.0208 1.45192 13.7939 1.61926 13.6265C1.7866 13.4592 2.01356 13.3652 2.25022 13.3652H23.2962L17.68 7.75077C17.5124 7.58322 17.4183 7.35597 17.4183 7.11902C17.4183 6.88207 17.5124 6.65482 17.68 6.48727C17.8476 6.31972 18.0748 6.22559 18.3118 6.22559C18.5487 6.22559 18.776 6.31972 18.9435 6.48727L26.082 13.6257C26.1651 13.7086 26.231 13.8071 26.276 13.9155C26.321 14.0239 26.3441 14.1401 26.3441 14.2575C26.3441 14.3749 26.321 14.4911 26.276 14.5995C26.231 14.7079 26.1651 14.8063 26.082 14.8892L18.9435 22.0277C18.776 22.1952 18.5487 22.2894 18.3118 22.2894C18.0748 22.2894 17.8476 22.1952 17.68 22.0277C17.5124 21.8601 17.4183 21.6329 17.4183 21.3959C17.4183 21.159 17.5124 20.9317 17.68 20.7642L23.2962 15.1498H2.25022C2.01356 15.1498 1.7866 15.0558 1.61926 14.8884C1.45192 14.7211 1.35791 14.4941 1.35791 14.2575V14.2575Z" fill="#E8E0D4"/>
</svg>
