<svg width="15" height="18" viewBox="0 0 15 18" fill="none" xmlns="http://www.w3.org/2000/svg">
<g id="icon">
<path id="Vector" d="M13.1249 14.3754V13.1253C13.1249 12.7816 12.8436 12.5003 12.4999 12.5003C12.1561 12.5003 11.8748 12.7816 11.8748 13.1253V14.3754H10.6248C10.281 14.3754 9.99976 14.6567 9.99976 15.0004C9.99976 15.3442 10.281 15.6254 10.6248 15.6254H11.8748V16.8755C11.8748 17.2192 12.1561 17.5005 12.4999 17.5005C12.8436 17.5005 13.1249 17.2192 13.1249 16.8755V15.6254H14.3749C14.7187 15.6254 14.9999 15.3442 14.9999 15.0004C14.9999 14.6567 14.7187 14.3754 14.3749 14.3754H13.1249Z" fill="#E8E0D4"/>
<path id="Vector_2" d="M2.9751 17.5006H8.75032C9.09408 17.5006 9.37534 17.2194 9.37534 16.8756C9.37534 16.5318 9.09408 16.2506 8.75032 16.2506H2.9751C2.02499 16.2506 1.25 15.4756 1.25 14.5192C1.25 14.4504 1.25628 14.3755 1.26256 14.3067L2.35635 5.54389C2.40002 5.23765 2.66258 5.00019 2.98137 5.00019H3.75008V5.62521C3.75008 5.96898 4.03134 6.25024 4.3751 6.25024C4.71887 6.25024 5.00013 5.96898 5.00013 5.62521V5.00019H10.0003V5.62521C10.0003 5.96898 10.2816 6.25024 10.6253 6.25024C10.9691 6.25024 11.2504 5.96898 11.2504 5.62521V5.00019H12.0191C12.3316 5.00019 12.6003 5.23764 12.6378 5.55014L13.2815 10.7068C13.3253 11.0505 13.6378 11.2942 13.9816 11.2506C14.3254 11.2068 14.5691 10.8943 14.5255 10.5505L13.8817 5.39388C13.763 4.45635 12.9629 3.75014 12.0191 3.75014H11.2504C11.2504 1.68128 9.56912 0 7.50026 0C6.50022 0 5.5564 0.387586 4.85019 1.10008C4.1377 1.80628 3.75011 2.7501 3.75011 3.75014H2.98141C2.03759 3.75014 1.23763 4.45635 1.11891 5.39388L0.024973 14.1506C0.00627805 14.2756 0 14.4007 0 14.5194C0 16.1633 1.33752 17.5008 2.97515 17.5008L2.9751 17.5006ZM5.73149 1.98147C6.2064 1.51271 6.83143 1.25013 7.50024 1.25013C8.88157 1.25013 10.0003 2.36888 10.0003 3.75022H5.00014C5.00014 3.08137 5.26271 2.45635 5.73149 1.98147Z" fill="#E8E0D4"/>
</g>
</svg>
