<svg width="25" height="24" viewBox="0 0 25 24" fill="none" xmlns="http://www.w3.org/2000/svg">
<path fill-rule="evenodd" clip-rule="evenodd" d="M6 6.55001V3H5V6.55001C3.85888 6.78164 3 7.79052 3 9C3 10.2095 3.85888 11.2184 5 11.45V21H6V11.45C7.14112 11.2184 8 10.2095 8 9C8 7.79052 7.14112 6.78164 6 6.55001ZM4 9C4 8.17157 4.67157 7.5 5.5 7.5C6.32843 7.5 7 8.17157 7 9C7 9.82843 6.32843 10.5 5.5 10.5C4.67157 10.5 4 9.82843 4 9Z" fill="#E8E0D4"/>
<path fill-rule="evenodd" clip-rule="evenodd" d="M12 13.55C10.8589 13.7816 10 14.7905 10 16C10 17.2095 10.8589 18.2184 12 18.45V21H13V18.45C14.1411 18.2184 15 17.2095 15 16C15 14.7905 14.1411 13.7816 13 13.55V3H12V13.55ZM11 16C11 15.1716 11.6716 14.5 12.5 14.5C13.3284 14.5 14 15.1716 14 16C14 16.8284 13.3284 17.5 12.5 17.5C11.6716 17.5 11 16.8284 11 16Z" fill="#E8E0D4"/>
<path fill-rule="evenodd" clip-rule="evenodd" d="M20 8.55001V3H19V8.55001C17.8589 8.78164 17 9.79052 17 11C17 12.2095 17.8589 13.2184 19 13.45V21H20V13.45C21.1411 13.2184 22 12.2095 22 11C22 9.79052 21.1411 8.78164 20 8.55001ZM18 11C18 10.1716 18.6716 9.5 19.5 9.5C20.3284 9.5 21 10.1716 21 11C21 11.8284 20.3284 12.5 19.5 12.5C18.6716 12.5 18 11.8284 18 11Z" fill="#E8E0D4"/>
</svg>
